<svg width="570" height="100" viewBox="0 0 570 100" fill="none" xmlns="http://www.w3.org/2000/svg">
<path fill-rule="evenodd" clip-rule="evenodd" d="M125 98C125 99.1046 125.895 100 127 100H165C166.105 100 167 99.1046 167 98V73.4244C167 71.2643 169.95 70.6382 170.828 72.6122L182.472 98.8123C182.793 99.5345 183.509 100 184.3 100H221.844C223.311 100 224.279 98.4727 223.652 97.146L209.348 66.854C208.721 65.5273 209.689 64 211.156 64H223C224.105 64 225 63.1046 225 62V30.8284C225 30.298 224.789 29.7893 224.414 29.4142L195.586 0.585786C195.211 0.210714 194.702 0 194.172 0H127C125.895 0 125 0.895429 125 2V98ZM168 27C166.895 27 166 27.8954 166 29V43C166 44.1046 166.895 45 168 45H182C183.105 45 184 44.1046 184 43V29C184 27.8954 183.105 27 182 27H168Z" fill="white"/>
<path d="M195 0L225 30H199C196.791 30 195 28.2091 195 26V0Z" fill="#3F85F4"/>
<path fill-rule="evenodd" clip-rule="evenodd" d="M240 30.8284V98C240 99.1046 240.895 100 242 100H280C281.105 100 282 99.1046 282 98V84C282 82.8954 282.895 82 284 82H296C297.105 82 298 82.8954 298 84V98C298 99.1046 298.895 100 300 100H338C339.105 100 340 99.1046 340 98V2C340 0.895429 339.105 0 338 0H270.828C270.298 0 269.789 0.210714 269.414 0.585786L240.586 29.4142C240.211 29.7893 240 30.298 240 30.8284ZM283 27C281.895 27 281 27.8954 281 29V53C281 54.1046 281.895 55 283 55H297C298.105 55 299 54.1046 299 53V29C299 27.8954 298.105 27 297 27H283Z" fill="white"/>
<path d="M270 0L240 30H266C268.209 30 270 28.2091 270 26V0Z" fill="#EA4235"/>
<path d="M425.586 0.585786L454.414 29.4142C454.789 29.7893 455 30.298 455 30.8284V44.7203C455 45.5004 454.546 46.2093 453.838 46.5363L411.268 66.1841C409.321 67.0828 409.961 70 412.106 70H453C454.105 70 455 70.8954 455 72V98C455 99.1046 454.105 100 453 100H357C355.895 100 355 99.1046 355 98V56.2576C355 55.4889 355.441 54.7882 356.133 54.4551L399.091 33.8025C401.008 32.8808 400.352 30 398.224 30H357C355.895 30 355 29.1046 355 28V2C355 0.895431 355.895 0 357 0H424.172C424.702 0 425.211 0.210713 425.586 0.585786Z" fill="white"/>
<path d="M425 0L455 30H429C426.791 30 425 28.2091 425 26V0Z" fill="#FCBC05"/>
<path d="M470 98V30.8284C470 30.298 470.211 29.7893 470.586 29.4142L499.414 0.585786C499.789 0.210714 500.298 0 500.828 0H568C569.105 0 570 0.895431 570 2V25C570 26.1046 569.105 27 568 27H522C520.895 27 520 27.8954 520 29V35C520 36.1046 520.895 37 522 37H568C569.105 37 570 37.8954 570 39V61C570 62.1046 569.105 63 568 63H522C520.895 63 520 63.8954 520 65V71C520 72.1046 520.895 73 522 73H568C569.105 73 570 73.8954 570 75V98C570 99.1046 569.105 100 568 100H472C470.895 100 470 99.1046 470 98Z" fill="white"/>
<path d="M500 0L470 30H496C498.209 30 500 28.2091 500 26V0Z" fill="#33A953"/>
<path d="M0 88L88 0H15C6.71573 0 0 6.71573 0 15V88Z" fill="white"/>
<path d="M100 12L12 100H85C93.2843 100 100 93.2843 100 85V12Z" fill="white"/>
</svg>
