<svg width="445" height="100" viewBox="0 0 445 100" fill="none" xmlns="http://www.w3.org/2000/svg">
<path fill-rule="evenodd" clip-rule="evenodd" d="M0 98C0 99.1046 0.89543 100 2 100H40C41.1046 100 42 99.1046 42 98V73.4244C42 71.2643 44.9503 70.6382 45.8276 72.6122L57.4721 98.8123C57.7931 99.5345 58.5094 100 59.2997 100H96.8438C98.311 100 99.2788 98.4727 98.6523 97.146L84.3477 66.854C83.7212 65.5273 84.689 64 86.1562 64H98C99.1046 64 100 63.1046 100 62V30.8284C100 30.298 99.7893 29.7893 99.4142 29.4142L70.5858 0.585786C70.2107 0.210714 69.702 0 69.1716 0H2C0.895431 0 0 0.895429 0 2V98ZM43 27C41.8954 27 41 27.8954 41 29V43C41 44.1046 41.8954 45 43 45H57C58.1046 45 59 44.1046 59 43V29C59 27.8954 58.1046 27 57 27H43Z" fill="#193562"/>
<path d="M70 0L100 30H74C71.7909 30 70 28.2091 70 26V0Z" fill="#3F85F4"/>
<path fill-rule="evenodd" clip-rule="evenodd" d="M115 30.8284V98C115 99.1046 115.895 100 117 100H155C156.105 100 157 99.1046 157 98V84C157 82.8954 157.895 82 159 82H171C172.105 82 173 82.8954 173 84V98C173 99.1046 173.895 100 175 100H213C214.105 100 215 99.1046 215 98V2C215 0.895429 214.105 0 213 0H145.828C145.298 0 144.789 0.210714 144.414 0.585786L115.586 29.4142C115.211 29.7893 115 30.298 115 30.8284ZM158 27C156.895 27 156 27.8954 156 29V53C156 54.1046 156.895 55 158 55H172C173.105 55 174 54.1046 174 53V29C174 27.8954 173.105 27 172 27H158Z" fill="#5E1A15"/>
<path d="M145 0L115 30H141C143.209 30 145 28.2091 145 26V0Z" fill="#EA4235"/>
<path d="M300.586 0.585786L329.414 29.4142C329.789 29.7893 330 30.298 330 30.8284V44.7203C330 45.5004 329.546 46.2093 328.838 46.5363L286.268 66.1841C284.321 67.0828 284.961 70 287.106 70H328C329.105 70 330 70.8954 330 72V98C330 99.1046 329.105 100 328 100H232C230.895 100 230 99.1046 230 98V56.2576C230 55.4889 230.441 54.7882 231.133 54.4551L274.091 33.8025C276.008 32.8808 275.352 30 273.224 30H232C230.895 30 230 29.1046 230 28V2C230 0.895431 230.895 0 232 0H299.172C299.702 0 300.211 0.210713 300.586 0.585786Z" fill="#654B02"/>
<path d="M300 0L330 30H304C301.791 30 300 28.2091 300 26V0Z" fill="#FCBC05"/>
<path d="M345 98V30.8284C345 30.298 345.211 29.7893 345.586 29.4142L374.414 0.585786C374.789 0.210714 375.298 0 375.828 0H443C444.105 0 445 0.895431 445 2V25C445 26.1046 444.105 27 443 27H397C395.895 27 395 27.8954 395 29V35C395 36.1046 395.895 37 397 37H443C444.105 37 445 37.8954 445 39V61C445 62.1046 444.105 63 443 63H397C395.895 63 395 63.8954 395 65V71C395 72.1046 395.895 73 397 73H443C444.105 73 445 73.8954 445 75V98C445 99.1046 444.105 100 443 100H347C345.895 100 345 99.1046 345 98Z" fill="#144421"/>
<path d="M375 0L345 30H371C373.209 30 375 28.2091 375 26V0Z" fill="#33A953"/>
</svg>
