<svg width="560" height="100" viewBox="0 0 560 100" fill="none" xmlns="http://www.w3.org/2000/svg">
<path fill-rule="evenodd" clip-rule="evenodd" d="M115 98C115 99.1046 115.895 100 117 100H155C156.105 100 157 99.1046 157 98V73.4244C157 71.2643 159.95 70.6382 160.828 72.6122L172.472 98.8123C172.793 99.5345 173.509 100 174.3 100H211.844C213.311 100 214.279 98.4727 213.652 97.146L199.348 66.854C198.721 65.5273 199.689 64 201.156 64H213C214.105 64 215 63.1046 215 62V30.8284C215 30.298 214.789 29.7893 214.414 29.4142L185.586 0.585786C185.211 0.210714 184.702 0 184.172 0H117C115.895 0 115 0.895429 115 2V98ZM158 27C156.895 27 156 27.8954 156 29V43C156 44.1046 156.895 45 158 45H172C173.105 45 174 44.1046 174 43V29C174 27.8954 173.105 27 172 27H158Z" fill="#404040"/>
<path d="M185 0L215 30H189C186.791 30 185 28.2091 185 26V0Z" fill="#3F85F4"/>
<path fill-rule="evenodd" clip-rule="evenodd" d="M230 30.8284V98C230 99.1046 230.895 100 232 100H270C271.105 100 272 99.1046 272 98V84C272 82.8954 272.895 82 274 82H286C287.105 82 288 82.8954 288 84V98C288 99.1046 288.895 100 290 100H328C329.105 100 330 99.1046 330 98V2C330 0.895429 329.105 0 328 0H260.828C260.298 0 259.789 0.210714 259.414 0.585786L230.586 29.4142C230.211 29.7893 230 30.298 230 30.8284ZM273 27C271.895 27 271 27.8954 271 29V53C271 54.1046 271.895 55 273 55H287C288.105 55 289 54.1046 289 53V29C289 27.8954 288.105 27 287 27H273Z" fill="#404040"/>
<path d="M260 0L230 30H256C258.209 30 260 28.2091 260 26V0Z" fill="#EA4235"/>
<path d="M415.586 0.585786L444.414 29.4142C444.789 29.7893 445 30.298 445 30.8284V44.7203C445 45.5004 444.546 46.2093 443.838 46.5363L401.268 66.1841C399.321 67.0828 399.961 70 402.106 70H443C444.105 70 445 70.8954 445 72V98C445 99.1046 444.105 100 443 100H347C345.895 100 345 99.1046 345 98V56.2576C345 55.4889 345.441 54.7882 346.133 54.4551L389.091 33.8025C391.008 32.8808 390.352 30 388.224 30H347C345.895 30 345 29.1046 345 28V2C345 0.895431 345.895 0 347 0H414.172C414.702 0 415.211 0.210713 415.586 0.585786Z" fill="#404040"/>
<path d="M415 0L445 30H419C416.791 30 415 28.2091 415 26V0Z" fill="#FCBC05"/>
<path d="M460 98V30.8284C460 30.298 460.211 29.7893 460.586 29.4142L489.414 0.585786C489.789 0.210714 490.298 0 490.828 0H558C559.105 0 560 0.895431 560 2V25C560 26.1046 559.105 27 558 27H512C510.895 27 510 27.8954 510 29V35C510 36.1046 510.895 37 512 37H558C559.105 37 560 37.8954 560 39V61C560 62.1046 559.105 63 558 63H512C510.895 63 510 63.8954 510 65V71C510 72.1046 510.895 73 512 73H558C559.105 73 560 73.8954 560 75V98C560 99.1046 559.105 100 558 100H462C460.895 100 460 99.1046 460 98Z" fill="#404040"/>
<path d="M490 0L460 30H486C488.209 30 490 28.2091 490 26V0Z" fill="#33A953"/>
<path d="M0 88L88 0H15C6.71573 0 0 6.71573 0 15V88Z" fill="#404040"/>
<path d="M100 12L12 100H85C93.2843 100 100 93.2843 100 85V12Z" fill="#404040"/>
</svg>
