<svg width="575" height="100" viewBox="0 0 575 100" fill="none" xmlns="http://www.w3.org/2000/svg">
<path d="M525 72.7273H575V100H475V0H575V27.2727H525V36.3636H575V63.6364H525V72.7273Z" fill="white"/>
<path d="M360 0H460V45.4545L401.667 72.7273H460V100H360V54.5455L418.333 27.2727H360V0Z" fill="white"/>
<path d="M245 0H345V100H303.333V81.8182H286.667V100H245V0ZM286.667 27.2727V54.5455H303.333V27.2727H286.667Z" fill="white"/>
<path d="M171.667 27.2727V36.3636H188.333V27.2727H171.667ZM171.667 63.6364V100H130V0H230V63.6364H213.333L230 100H188.333L171.667 63.6364Z" fill="white"/>
<path d="M100 0H0L50 100L100 0Z" fill="white"/>
<path d="M40 80L20 100H80L60 80H40Z" fill="white"/>
</svg>
